# xmcd CD database file
#
# Track frame offsets:
#	150
#	11827
#	26853
#	41633
#	52569
#	68261
#	84137
#	104902
#	120880
#	135331
#
# Disc length: 1957 seconds
#
# Revision: 0
# Processed by: cddbd v1.5.2PL0 Copyright (c) Steve Scherf et al.
# Submitted via: CDex 1.51
#
DISCID=6f07a30a
DTITLE=Various Artist - Rednecks do it best
DYEAR=2007
DGENRE=Country
TTITLE0=I walk the Line
TTITLE1=Friends in low places
TTITLE2=Boot scootin' boogie
TTITLE3=Chattahoochee
TTITLE4=The Devil Went down to Georgia
TTITLE5=Redneck Woman
TTITLE6=Sweet home Alabama
TTITLE7=The Gambler
TTITLE8=Thank God I'm a country Boy
TTITLE9=American Made
EXTD=YEAR: 2007
EXTT0=
EXTT1=
EXTT2=
EXTT3=
EXTT4=
EXTT5=
EXTT6=
EXTT7=
EXTT8=
EXTT9=
PLAYORDER=
